<?xml version="1.0" encoding="UTF-8"?>
<!DOCTYPE svg PUBLIC "-//W3C//DTD SVG 1.1//EN" "http://www.w3.org/Graphics/SVG/1.1/DTD/svg11.dtd">
<!-- Creator: CorelDRAW 2020 (64-Bit) -->
<svg xmlns="http://www.w3.org/2000/svg" xml:space="preserve" width="157px" height="40px" version="1.1" style="shape-rendering:geometricPrecision; text-rendering:geometricPrecision; image-rendering:optimizeQuality; fill-rule:evenodd; clip-rule:evenodd"
viewBox="0 0 45.58 11.61"
 xmlns:xlink="http://www.w3.org/1999/xlink"
 xmlns:xodm="http://www.corel.com/coreldraw/odm/2003">
 <defs>
  <style type="text/css">
   <![CDATA[
    .fil0 {fill:#C4C4C4}
   ]]>
  </style>
 </defs>
 <g id="Layer_x0020_1">
  <metadata id="CorelCorpID_0Corel-Layer"/>
  <g id="_3138322285456">
   <g>
    <path class="fil0" d="M28.28 9.08c-2.65,1.65 -6.49,2.53 -9.8,2.53 -4.63,0 -8.8,-1.45 -11.96,-3.86 -0.25,-0.19 -0.03,-0.45 0.27,-0.3 3.41,1.68 7.62,2.69 11.97,2.69 2.93,0 6.16,-0.52 9.13,-1.58 0.45,-0.16 0.82,0.25 0.39,0.52l0 0zm0 0l0 0 0 0z"/>
   </g>
   <g>
    <path class="fil0" d="M29.38 8.02c-0.34,-0.37 -2.24,-0.18 -3.09,-0.09 -0.26,0.03 -0.3,-0.17 -0.07,-0.3 1.51,-0.9 4,-0.64 4.29,-0.34 0.29,0.3 -0.08,2.41 -1.5,3.41 -0.22,0.16 -0.43,0.07 -0.33,-0.13 0.32,-0.68 1.04,-2.19 0.7,-2.55l0 0zm0 0l0 0 0 0z"/>
   </g>
   <g>
    <path class="fil0" d="M26.34 1.27l0 -0.88c0,-0.13 0.12,-0.22 0.27,-0.22l4.63 0c0.15,0 0.27,0.09 0.27,0.22l0 0.75c0,0.13 -0.13,0.29 -0.35,0.55l-2.4 2.9c0.89,-0.02 1.83,0.1 2.64,0.48 0.19,0.09 0.24,0.22 0.25,0.34l0 0.94c0,0.12 -0.17,0.27 -0.34,0.2 -1.43,-0.64 -3.32,-0.7 -4.9,0 -0.16,0.08 -0.33,-0.07 -0.33,-0.2l0 -0.89c0,-0.14 0,-0.38 0.17,-0.6l2.78 -3.37 -2.42 0c-0.15,0 -0.27,-0.09 -0.27,-0.22l0 0zm-16.91 5.46l-1.41 0c-0.13,-0.01 -0.24,-0.09 -0.25,-0.2l0 -6.12c0,-0.12 0.12,-0.22 0.27,-0.22l1.32 0c0.13,0 0.24,0.09 0.25,0.2l0 0.8 0.03 0c0.34,-0.77 0.99,-1.13 1.86,-1.13 0.88,0 1.43,0.36 1.83,1.13 0.34,-0.77 1.11,-1.13 1.94,-1.13 0.6,0 1.24,0.21 1.64,0.67 0.44,0.51 0.35,1.26 0.35,1.92l0 3.86c0,0.12 -0.12,0.22 -0.27,0.22l-1.41 0c-0.14,-0.01 -0.25,-0.1 -0.25,-0.22l0 -3.24c0,-0.26 0.02,-0.91 -0.04,-1.15 -0.11,-0.41 -0.42,-0.53 -0.83,-0.53 -0.34,0 -0.7,0.19 -0.85,0.5 -0.14,0.31 -0.13,0.83 -0.13,1.18l0 3.24c0,0.12 -0.12,0.22 -0.27,0.22l-1.41 0c-0.14,-0.01 -0.25,-0.1 -0.25,-0.22l0 -3.24c0,-0.69 0.13,-1.69 -0.87,-1.69 -1.02,0 -0.98,0.98 -0.98,1.69l0 3.24c0,0.12 -0.12,0.22 -0.27,0.22l0 0zm26.07 -6.67c2.1,0 3.23,1.52 3.23,3.45 0,1.87 -1.25,3.35 -3.23,3.35 -2.05,0 -3.17,-1.52 -3.17,-3.41 0,-1.91 1.13,-3.39 3.17,-3.39l0 0zm0.01 1.25c-1.04,0 -1.1,1.2 -1.1,1.94 0,0.75 -0.01,2.35 1.09,2.35 1.1,0 1.15,-1.29 1.15,-2.08 0,-0.51 -0.03,-1.13 -0.21,-1.62 -0.16,-0.43 -0.48,-0.59 -0.93,-0.59l0 0zm5.93 5.42l-1.4 0c-0.14,-0.01 -0.26,-0.1 -0.26,-0.22l0 -6.12c0.01,-0.11 0.13,-0.2 0.27,-0.2l1.31 0c0.12,0 0.23,0.07 0.25,0.17l0 0.94 0.03 0c0.39,-0.84 0.95,-1.24 1.92,-1.24 0.63,0 1.25,0.19 1.65,0.72 0.37,0.49 0.37,1.31 0.37,1.91l0 3.85c-0.02,0.11 -0.14,0.19 -0.27,0.19l-1.42 0c-0.13,-0.01 -0.24,-0.09 -0.25,-0.19l0 -3.33c0,-0.67 0.09,-1.65 -0.88,-1.65 -0.35,0 -0.66,0.2 -0.82,0.49 -0.2,0.38 -0.22,0.75 -0.22,1.16l0 3.3c0,0.12 -0.13,0.22 -0.28,0.22l0 0zm-18.79 -2.92c0,0.46 0.01,0.85 -0.27,1.26 -0.22,0.34 -0.58,0.54 -0.97,0.54 -0.54,0 -0.86,-0.34 -0.86,-0.86 0,-1.02 1.08,-1.2 2.1,-1.2l0 0.26 0 0zm1.42 2.9c-0.09,0.07 -0.23,0.08 -0.33,0.03 -0.47,-0.33 -0.56,-0.48 -0.81,-0.79 -0.78,0.67 -1.32,0.86 -2.33,0.86 -1.19,0 -2.11,-0.61 -2.11,-1.85 0,-0.97 0.62,-1.63 1.51,-1.95 0.76,-0.29 1.83,-0.34 2.65,-0.42l0 -0.15c0,-0.28 0.02,-0.62 -0.17,-0.86 -0.17,-0.22 -0.5,-0.32 -0.8,-0.32 -0.53,0 -1.01,0.24 -1.13,0.72 -0.02,0.11 -0.12,0.21 -0.24,0.22l-1.37 -0.12c-0.12,-0.03 -0.25,-0.11 -0.21,-0.25 0.31,-1.41 1.81,-1.83 3.15,-1.83 0.69,0 1.59,0.15 2.13,0.59 0.68,0.55 0.62,1.27 0.62,2.06l0 1.85c0,0.56 0.27,0.81 0.53,1.11 0.09,0.11 0.11,0.24 -0.01,0.32 -0.28,0.2 -0.8,0.58 -1.08,0.79l0 -0.01 0 0zm-19.91 -2.9c0,0.46 0.01,0.85 -0.27,1.26 -0.22,0.34 -0.58,0.54 -0.97,0.54 -0.55,0 -0.86,-0.34 -0.86,-0.86 0,-1.02 1.08,-1.2 2.1,-1.2l0 0.26 0 0zm1.42 2.9c-0.09,0.07 -0.23,0.08 -0.33,0.03 -0.47,-0.33 -0.56,-0.48 -0.81,-0.79 -0.78,0.67 -1.33,0.86 -2.33,0.86 -1.19,0 -2.11,-0.61 -2.11,-1.85 0,-0.97 0.62,-1.63 1.5,-1.95 0.77,-0.29 1.84,-0.34 2.66,-0.42l0 -0.15c0,-0.28 0.02,-0.62 -0.17,-0.86 -0.18,-0.22 -0.51,-0.32 -0.8,-0.32 -0.53,0 -1.01,0.24 -1.13,0.72 -0.02,0.11 -0.12,0.21 -0.24,0.22l-1.37 -0.12c-0.12,-0.03 -0.25,-0.11 -0.21,-0.25 0.31,-1.41 1.81,-1.83 3.15,-1.83 0.69,0 1.58,0.15 2.13,0.59 0.68,0.55 0.62,1.27 0.62,2.06l0 1.85c0,0.56 0.27,0.81 0.53,1.11 0.09,0.11 0.11,0.24 -0.01,0.32 -0.28,0.2 -0.8,0.58 -1.08,0.79l0 -0.01 0 0zm0 0l0 0 0 0z"/>
   </g>
  </g>
 </g>
</svg>
